<svg xmlns="http://www.w3.org/2000/svg" viewBox="0 0 150 320"><defs><style>.cls-1{fill:#1d1d1b;}</style></defs><title>svg logo</title><g id="_02_-_svg_logo" data-name="02 - svg logo"><path id="e" class="cls-1" d="M58.12,320v-6H10.42v6H5.86V275.7H20.35v7.83H10.91v20.25H30.69V290.31H25v-5.65H41.43v5.65h-5.7v13.47h21.9V282.72H47.05V274.9H62.68V320Z"/><path id="d" class="cls-1" d="M63.66,251.5a16.6,16.6,0,0,1-1.51,7.14,15.07,15.07,0,0,1-4.36,5.44,20,20,0,0,1-7,3.47,32.85,32.85,0,0,1-9.32,1.21,32.9,32.9,0,0,1-9.32-1.21,20.11,20.11,0,0,1-7-3.47,15,15,0,0,1-4.35-5.44,16.6,16.6,0,0,1-1.51-7.14,12.19,12.19,0,0,1,7.25-11.94v-.41H7.81l-1,5.57H3L0,229.47H55.84l1.06-5.57h3.74l3,15.25H56.41v.41a12,12,0,0,1,5.09,4.15A13,13,0,0,1,63.66,251.5Zm-6.11-3.07A11.68,11.68,0,0,0,57,245a9.09,9.09,0,0,0-1.55-3A7.67,7.67,0,0,0,53,239.92a6.86,6.86,0,0,0-3.29-.77H33.29a6.9,6.9,0,0,0-3.25.77A7.64,7.64,0,0,0,27.55,242,9.26,9.26,0,0,0,26,245a11.37,11.37,0,0,0-.53,3.47,9.2,9.2,0,0,0,3.09,7.3c2.06,1.81,4.89,2.71,8.47,2.71h9q5.37,0,8.47-2.71A9.2,9.2,0,0,0,57.55,248.43Z"/><path id="u" class="cls-1" d="M63.66,202.84q0,7.83-3.95,11.1t-11.93,3.27H27.19l-1.06,5.48H22.38l-3-15.17H47.29c3.42,0,5.93-.65,7.53-2s2.4-3.43,2.4-6.34a11.46,11.46,0,0,0-.44-3.18,9.14,9.14,0,0,0-1.35-2.83,7,7,0,0,0-2.24-2,6.35,6.35,0,0,0-3.21-.76H27.19L26.13,196H22.38l-3-15.25H55.84l1.06-5.57h3.74l3,15H56v.4a9.94,9.94,0,0,1,2.77,1.53,12.47,12.47,0,0,1,2.48,2.54A11.89,11.89,0,0,1,63,198.2,15.21,15.21,0,0,1,63.66,202.84Z"/><path id="a" class="cls-1" d="M63.66,157.74q0,6.38-3.14,9.64t-8.67,3.27q-6.18,0-9.36-4.48t-3.17-14.48v-5.81H33.94c-3.25,0-5.75.73-7.48,2.18s-2.61,3.74-2.61,6.86a15.65,15.65,0,0,0,.33,3.35,13.73,13.73,0,0,0,.81,2.62h.33a5.33,5.33,0,0,1,1.38-1.74,4.11,4.11,0,0,1,2.77-.84,5.28,5.28,0,0,1,3.9,1.45,5.83,5.83,0,0,1,0,7.74,5.29,5.29,0,0,1-3.9,1.46,7.17,7.17,0,0,1-3.75-1.09,10.51,10.51,0,0,1-3.21-3.23,18,18,0,0,1-2.28-5.33,28.55,28.55,0,0,1-.86-7.38q0-7.74,3.63-11.74t10.13-4H58.2v-5.57H62a12.54,12.54,0,0,1,1.14,3,16.15,16.15,0,0,1,.49,4q0,3.87-2,5.69a7.26,7.26,0,0,1-5.09,1.81h-.16v.41a18,18,0,0,1,2.65,1.53,10.51,10.51,0,0,1,2.32,2.3A10.87,10.87,0,0,1,63,152.86,17.13,17.13,0,0,1,63.66,157.74Zm-5.95-3.87A9.36,9.36,0,0,0,56,148.14q-1.66-2.26-5.41-2.26H43.47v4.84q0,5.57,1.83,7.83a6.48,6.48,0,0,0,5.33,2.26H52.1A4.92,4.92,0,0,0,56.33,159,8.35,8.35,0,0,0,57.71,153.87Z"/><path id="r" class="cls-1" d="M58.12,125.79v-5.57H27.19l-1.06,5.57H22.38l-3-15h7.57v-.4a14,14,0,0,1-5.25-3.63A9.62,9.62,0,0,1,19.37,100a9,9,0,0,1,2-6.13,6.89,6.89,0,0,1,5.53-2.26,6.5,6.5,0,0,1,4.56,1.49,5.25,5.25,0,0,1,1.63,4.08,5.71,5.71,0,0,1-1.39,4.07,4.76,4.76,0,0,1-5.77.89,2.22,2.22,0,0,1-1.14-1.41l-.25.08a3.63,3.63,0,0,0-.12.56,7,7,0,0,0,0,.89,6.55,6.55,0,0,0,.77,3,9.78,9.78,0,0,0,2,2.67A10.67,10.67,0,0,0,30,109.81a7,7,0,0,0,3,.73H58.12v-7.18h4.56v22.43Z"/><path id="d-2" data-name="d" class="cls-1" d="M63.66,70.92a16.54,16.54,0,0,1-1.51,7.14,15,15,0,0,1-4.36,5.45,20.2,20.2,0,0,1-7,3.47,32.85,32.85,0,0,1-9.32,1.21A32.9,32.9,0,0,1,32.19,87a20.29,20.29,0,0,1-7-3.47,15,15,0,0,1-4.35-5.45,16.54,16.54,0,0,1-1.51-7.14A12.21,12.21,0,0,1,26.62,59v-.4H7.81l-1,5.57H3L0,48.9H55.84l1.06-5.57h3.74l3,15.25H56.41V59a12,12,0,0,1,5.09,4.16A12.92,12.92,0,0,1,63.66,70.92Zm-6.11-3.06A11.63,11.63,0,0,0,57,64.39a9.14,9.14,0,0,0-1.55-3A7.8,7.8,0,0,0,53,59.34a6.86,6.86,0,0,0-3.29-.76H33.29a6.89,6.89,0,0,0-3.25.76,7.77,7.77,0,0,0-2.49,2.06,9.31,9.31,0,0,0-1.54,3,11.32,11.32,0,0,0-.53,3.47,9.21,9.21,0,0,0,3.09,7.3c2.06,1.8,4.89,2.7,8.47,2.7h9q5.37,0,8.47-2.7A9.21,9.21,0,0,0,57.55,67.86Z"/><path id="o" class="cls-1" d="M63.66,20.25a21.49,21.49,0,0,1-1.55,8.27,18.16,18.16,0,0,1-4.4,6.42,19.71,19.71,0,0,1-7,4.11,27.56,27.56,0,0,1-9.24,1.46,27.54,27.54,0,0,1-9.23-1.46,19.71,19.71,0,0,1-7-4.11,18.16,18.16,0,0,1-4.4-6.42,21.49,21.49,0,0,1-1.55-8.27A21.52,21.52,0,0,1,20.92,12a18,18,0,0,1,4.4-6.41,19.58,19.58,0,0,1,7-4.12A27.55,27.55,0,0,1,41.51,0a27.57,27.57,0,0,1,9.24,1.45,19.58,19.58,0,0,1,7,4.12A18,18,0,0,1,62.11,12,21.52,21.52,0,0,1,63.66,20.25Zm-5,0q0-5-3-7.34a13,13,0,0,0-8.1-2.34H35.57a13,13,0,0,0-8.1,2.34q-3,2.34-3,7.34t3,7.35a13,13,0,0,0,8.1,2.34H47.46a13,13,0,0,0,8.1-2.34Q58.61,25.26,58.61,20.25Z"/><path id="d-3" data-name="d" class="cls-1" d="M128.19,320v-6H80.49v6H75.93V294.58a30.26,30.26,0,0,1,1.83-10.69,23.18,23.18,0,0,1,5.41-8.43,24.63,24.63,0,0,1,8.91-5.53,35.33,35.33,0,0,1,12.25-2,35.27,35.27,0,0,1,12.3,2,24.72,24.72,0,0,1,8.87,5.53,23.18,23.18,0,0,1,5.41,8.43,30.26,30.26,0,0,1,1.83,10.69V320Zm-.49-16.22v-7.66q0-8.31-4.36-12.55t-12.82-4.24H98.15q-8.46,0-12.82,4.24T81,296.12v7.66Z"/><path id="a-2" data-name="a" class="cls-1" d="M133.72,249.32q0,6.38-3.13,9.64t-8.67,3.27q-6.19,0-9.36-4.48t-3.18-14.48v-5.81H104c-3.26,0-5.75.72-7.49,2.18s-2.6,3.73-2.6,6.85a15.55,15.55,0,0,0,.32,3.35,14,14,0,0,0,.82,2.62h.32a5.2,5.2,0,0,1,1.38-1.73,4.15,4.15,0,0,1,2.77-.85,5.31,5.31,0,0,1,3.91,1.46,5.86,5.86,0,0,1,0,7.74,5.31,5.31,0,0,1-3.91,1.45,7,7,0,0,1-3.74-1.09,10.39,10.39,0,0,1-3.22-3.22,18,18,0,0,1-2.28-5.33,28.58,28.58,0,0,1-.85-7.38q0-7.75,3.62-11.74c2.42-2.66,5.79-4,10.14-4h25.07v-5.56h3.82a11.81,11.81,0,0,1,1.14,3,15.83,15.83,0,0,1,.49,4c0,2.58-.67,4.48-2,5.69a7.28,7.28,0,0,1-5.09,1.81h-.16v.4a18.36,18.36,0,0,1,2.64,1.54,10.3,10.3,0,0,1,2.32,2.3,10.78,10.78,0,0,1,1.67,3.47A17.16,17.16,0,0,1,133.72,249.32Zm-5.94-3.87a9.38,9.38,0,0,0-1.67-5.73c-1.11-1.51-2.92-2.26-5.41-2.26h-7.17v4.84q0,5.56,1.83,7.83a6.49,6.49,0,0,0,5.34,2.25h1.46a4.92,4.92,0,0,0,4.23-1.85A8.28,8.28,0,0,0,127.78,245.45Z"/><path id="r-2" data-name="r" class="cls-1" d="M128.19,217.29v-5.57H97.25l-1.06,5.57H92.45l-3-15H97v-.41a14,14,0,0,1-5.25-3.63,9.53,9.53,0,0,1-2.32-6.77,9.08,9.08,0,0,1,2-6.14,7,7,0,0,1,5.54-2.26,6.5,6.5,0,0,1,4.56,1.5,5.25,5.25,0,0,1,1.62,4.07,5.79,5.79,0,0,1-1.38,4.08,4.49,4.49,0,0,1-3.42,1.49A4.34,4.34,0,0,1,96,193.6a2.23,2.23,0,0,1-1.14-1.41l-.24.08a2.67,2.67,0,0,0-.13.57c0,.21,0,.51,0,.89a6.44,6.44,0,0,0,.78,3,9.36,9.36,0,0,0,2,2.66,10.87,10.87,0,0,0,2.81,1.9,7.14,7.14,0,0,0,3,.73h25.16v-7.18h4.55v22.43Z"/><path id="g" class="cls-1" d="M150,161.29a51.45,51.45,0,0,1-.69,9.2,19.87,19.87,0,0,1-2,6,7.85,7.85,0,0,1-3,3.23,8.47,8.47,0,0,1-4.07,1,5.81,5.81,0,0,1-2.85-.73,8,8,0,0,1-2.32-2,11.92,11.92,0,0,1-1.71-2.86,21,21,0,0,1-1.1-3.39h-.32a7.92,7.92,0,0,1-2.65,4.28,7.5,7.5,0,0,1-4.84,1.53,6.9,6.9,0,0,1-5.49-2.3,12.49,12.49,0,0,1-2.73-5.45h-.41a14.4,14.4,0,0,1-4.72,6.34,12.48,12.48,0,0,1-7.65,2.3,13.43,13.43,0,0,1-5.86-1.25,12.63,12.63,0,0,1-4.44-3.55,16.13,16.13,0,0,1-2.77-5.49,24.86,24.86,0,0,1-.93-7,22.8,22.8,0,0,1,.77-6.13,20.54,20.54,0,0,1,2.08-4.93q-4.73-.15-6.68-2.09a6.65,6.65,0,0,1-2-4.93,5,5,0,0,1,1.26-3.59,5,5,0,0,1,6.76,0,5,5,0,0,1,1.26,3.59,5.93,5.93,0,0,1-.45,2.3,4.44,4.44,0,0,1-1.34,1.82v.24h3.17A14.66,14.66,0,0,1,98,144.79a11.85,11.85,0,0,1,5.4-1.09,13.3,13.3,0,0,1,5.88,1.25,12.8,12.8,0,0,1,4.38,3.55,16.11,16.11,0,0,1,2.76,5.49,25.14,25.14,0,0,1,.93,7.06,26.14,26.14,0,0,1-.49,5.24,6.27,6.27,0,0,0,1.67,2.83,3.75,3.75,0,0,0,2.64,1.13,2.85,2.85,0,0,0,2.69-1.42,10,10,0,0,0,.81-4.72v-9.6q0-8.07,3.06-11.7a10.4,10.4,0,0,1,8.42-3.63,11.62,11.62,0,0,1,10.09,5.53Q150,150.23,150,161.29Zm-37.2-.24q0-3.8-2.11-5.65a8.75,8.75,0,0,0-6-1.86h-2.44a8.75,8.75,0,0,0-6,1.86q-2.11,1.86-2.11,5.65t2.11,5.65a8.8,8.8,0,0,0,6,1.85h2.44a8.8,8.8,0,0,0,6-1.85Q112.81,164.84,112.8,161.05Zm26.7,11.54a4.7,4.7,0,0,0,4.35-2.46,14.5,14.5,0,0,0,1.43-7.15v-4.51q0-5.41-1.67-8.35a5.21,5.21,0,0,0-4.76-3,4.5,4.5,0,0,0-4.11,2c-.84,1.32-1.26,3.45-1.26,6.41V169a7.41,7.41,0,0,0,2.6,2.78A6.78,6.78,0,0,0,139.5,172.59Z"/><path id="e-2" data-name="e" class="cls-1" d="M133.72,116.91a21.38,21.38,0,0,1-1.63,8.6,18,18,0,0,1-4.56,6.37,19.16,19.16,0,0,1-7,4,28.54,28.54,0,0,1-9,1.34,27,27,0,0,1-9.12-1.46,20.49,20.49,0,0,1-7-4.07A18.27,18.27,0,0,1,91,125.43a19.46,19.46,0,0,1-1.59-8,20.74,20.74,0,0,1,1.42-7.87,16.67,16.67,0,0,1,4-6,17.31,17.31,0,0,1,6.25-3.75,23.94,23.94,0,0,1,8-1.29h2.35v28.08h2.62q6.13,0,9.53-3.15a11,11,0,0,0,3.4-8.47,12,12,0,0,0-7.12-11.86l2.2-3.72a16.3,16.3,0,0,1,4.16,2.18,18.25,18.25,0,0,1,3.72,3.59,17.72,17.72,0,0,1,2.69,5A19.86,19.86,0,0,1,133.72,116.91ZM107,126.68V108.6h-1q-5.69,0-8.79,2.18a7.55,7.55,0,0,0-3.09,6.62,8.27,8.27,0,0,0,3,6.9c2,1.58,4.91,2.38,8.71,2.38Z"/><path id="n" class="cls-1" d="M128.19,95V89.4H97.25L96.19,95H92.45l-3-15h7.65v-.41A10.22,10.22,0,0,1,94.32,78a12,12,0,0,1-4.23-6.09,15.48,15.48,0,0,1-.65-4.64q0-7.83,4-11.09t11.84-3.27h23V47.36h4.55V68h-4.55V62.61H105.72q-5.06,0-7.45,2t-2.4,6.33a11.54,11.54,0,0,0,.45,3.19,9,9,0,0,0,1.34,2.82,6.82,6.82,0,0,0,2.28,2,6.63,6.63,0,0,0,3.26.77h25V74.31h4.55V95Z"/><path id="t" class="cls-1" d="M133.39,31.63c0,3.22-.65,5.5-1.95,6.81s-3.42,2-6.35,2H95.38V46h-5V44.62A11.73,11.73,0,0,0,90.17,42a4.12,4.12,0,0,0-.77-1.7,4.78,4.78,0,0,0-1.3-1.09,14,14,0,0,0-1.84-.85L79.1,35.74v-5H90.42V20.49h5V30.74h32.48V20.49h3.82A18.73,18.73,0,0,1,132.87,25,40.19,40.19,0,0,1,133.39,31.63Z"/></g></svg>